<svg width="734" height="111" viewBox="0 0 734 111" fill="none" xmlns="http://www.w3.org/2000/svg">
<mask id="mask0_465_2248" style="mask-type:luminance" maskUnits="userSpaceOnUse" x="0" y="0" width="734" height="111">
<path d="M733.73 0H0V110.06H733.73V0Z" fill="white"/>
</mask>
<g mask="url(#mask0_465_2248)">
<path d="M22.36 0L0 18.76V23.13H57.92L37.99 39.48V110.06H42.35L66.93 89.44V23.13H89.87L112.22 4.37V0H22.36Z" fill="#0000B7"/>
<path d="M154.959 35.4495H136.969V23.1395H186.459V35.4495H168.459V89.4095H154.959V35.4495ZM193.879 23.1295H219.749C236.169 23.1295 244.269 30.9695 244.269 44.1795C244.269 53.8095 236.849 62.5395 224.479 63.8795L243.369 89.3995H227.619L209.179 64.0995H207.379V89.3995H193.879V23.1295ZM230.319 44.1795C230.319 37.6895 226.049 34.7795 218.399 34.7795H207.379V55.3795H216.149C225.599 55.3795 230.319 52.4695 230.319 44.1895V44.1795ZM274.399 23.1295H281.149L308.819 89.3995H294.649L290.379 78.2095H265.189L260.919 89.3995H246.969L274.409 23.1295H274.399ZM286.549 68.1395L278.229 45.7495H277.329L269.009 68.1395H286.559H286.549ZM313.319 23.1295H327.269L346.609 61.8595H347.059L367.079 23.1295H380.799V89.3995H367.299V51.7895H366.399L347.729 84.4795H345.259L327.709 51.7895H326.809V89.3995H313.309V23.1295H313.319ZM388.669 56.4995C388.669 35.2295 403.289 22.0195 422.189 22.0195C441.089 22.0195 455.029 35.2295 455.029 56.2795C455.029 77.3295 440.409 90.5395 421.739 90.5395C403.069 90.5395 388.669 77.3295 388.669 56.5095V56.4995ZM440.629 56.2695C440.629 43.5095 432.759 34.5495 421.959 34.5495C411.159 34.5495 403.059 43.5095 403.059 56.2695C403.059 69.0295 410.929 77.9895 421.959 77.9895C432.989 77.9895 440.629 69.0295 440.629 56.2695ZM462.899 23.1295H469.649L504.519 61.6395H505.419V23.1295H518.919V89.3995H512.169L477.299 50.8895H476.399V89.3995H462.899V23.1295ZM545.679 35.4495H527.679V23.1395H577.169V35.4495H559.169V89.4095H545.669V35.4495H545.679ZM585.489 23.1295H598.989V89.3995H585.489V23.1295ZM611.579 23.1295H619.679L653.199 61.6395H654.099V23.1295H667.599V89.3995H659.499L625.979 50.8895H625.079V89.3995H611.579V23.1295ZM699.309 23.1295H706.059L733.729 89.3995H719.559L715.289 78.2095H690.099L685.829 89.3995H671.879L699.319 23.1295H699.309ZM711.459 68.1395L703.139 45.7495H702.239L693.919 68.1395H711.469H711.459Z" fill="#0000B7"/>
</g>
</svg>
