<?xml version="1.0" encoding="utf-8"?>
<!-- Generator: Adobe Illustrator 25.2.1, SVG Export Plug-In . SVG Version: 6.00 Build 0)  -->
<svg version="1.1" id="Camada_1" xmlns="http://www.w3.org/2000/svg" xmlns:xlink="http://www.w3.org/1999/xlink" x="0px" y="0px"
	 viewBox="0 0 132 71.89" style="enable-background:new 0 0 132 71.89;" xml:space="preserve">
<style type="text/css">
	.st0{fill:#FFFFFF;}
	.st1{fill:#F71963;}
	.st2{fill:#5E6E82;}
	.st3{fill:#142032;}
</style>
<g>
	<g>
		<path class="st0" d="M18.02,55.65c-0.83,0-1.51-0.68-1.51-1.5V17.78c0-0.83,0.68-1.5,1.51-1.5h95.96c0.83,0,1.51,0.67,1.51,1.5
			v36.36c0,0.83-0.68,1.5-1.51,1.5L18.02,55.65L18.02,55.65z"/>
		<path class="st1" d="M113.98,16.79c0.55,0,0.99,0.44,0.99,0.99v36.36c0,0.55-0.44,0.99-0.99,0.99H18.02
			c-0.55,0-0.99-0.44-0.99-0.99V17.78c0-0.55,0.44-0.99,0.99-0.99L113.98,16.79 M113.98,15.76H18.02c-1.12,0-2.02,0.9-2.02,2.02
			v36.36c0,1.12,0.9,2.02,2.02,2.02h95.96c1.12,0,2.02-0.9,2.02-2.02V17.78C116,16.66,115.1,15.76,113.98,15.76L113.98,15.76z"/>
	</g>
	<g>
		<path class="st1" d="M56.49,56.13H18.11c-1.12,0-2.02-0.9-2.02-2.02V17.75c0-1.12,0.9-2.02,2.02-2.02h38.38V56.13z"/>
	</g>
	<g>
		<path id="Shape_4_" class="st0" d="M48.61,23.59H26.95c-0.78,0.01-1.51,0.42-1.91,1.09c-0.4,0.67-0.43,1.5-0.06,2.19l2.17,4.11
			h-3.93c-0.5-0.01-0.97,0.25-1.23,0.67c-0.26,0.42-0.28,0.96-0.04,1.4l6.97,13.11c0.25,0.47,0.74,0.77,1.28,0.77
			s1.03-0.29,1.28-0.77l1.89-3.55l2.38,4.47c0.39,0.73,1.14,1.18,1.97,1.18s1.58-0.45,1.97-1.18l10.86-20.34
			c0.36-0.67,0.34-1.48-0.06-2.13C50.09,23.98,49.38,23.58,48.61,23.59L48.61,23.59z M38.93,32.18l-4.75,8.87
			c-0.16,0.31-0.48,0.5-0.83,0.5c-0.35,0-0.67-0.19-0.83-0.5l-4.69-8.79c-0.14-0.27-0.14-0.6,0.02-0.86
			c0.16-0.26,0.44-0.42,0.75-0.42h9.6c0.29,0,0.56,0.14,0.71,0.39S39.07,31.93,38.93,32.18z"/>
		<path id="Shape_3_" class="st0" d="M48.61,23.59H26.95c-0.78,0.01-1.51,0.42-1.91,1.09c-0.4,0.67-0.43,1.5-0.06,2.19l2.17,4.11
			h-3.93c-0.5-0.01-0.97,0.25-1.23,0.67c-0.26,0.42-0.28,0.96-0.04,1.4l6.97,13.11c0.25,0.47,0.74,0.77,1.28,0.77
			s1.03-0.29,1.28-0.77l1.89-3.55l2.38,4.47c0.39,0.73,1.14,1.18,1.97,1.18s1.58-0.45,1.97-1.18l10.86-20.34
			c0.36-0.67,0.34-1.48-0.06-2.13C50.09,23.98,49.38,23.58,48.61,23.59L48.61,23.59z M38.93,32.18l-4.75,8.87
			c-0.16,0.31-0.48,0.5-0.83,0.5c-0.35,0-0.67-0.19-0.83-0.5l-4.69-8.79c-0.14-0.27-0.14-0.6,0.02-0.86
			c0.16-0.26,0.44-0.42,0.75-0.42h9.6c0.29,0,0.56,0.14,0.71,0.39S39.07,31.93,38.93,32.18z"/>
	</g>
	<g>
		<path class="st2" d="M65.78,35.68l1.73-5.54h1l-2.13,6.29h-1.24l-2.12-6.29h1.02L65.78,35.68z M73.99,30.14v0.77h-1.96v5.52h-0.92
			v-5.52h-1.98v-0.77H73.99z M75.86,33.56v2.07h3.23v0.8h-4.14v-6.29h4.14v0.8h-3.22v1.81h2.76v0.8h-2.77V33.56z M85.47,30.14
			l-2.36,3.18l2.33,3.11h-1.13l-1.76-2.41l-1.73,2.41h-1.14l2.33-3.14l-2.36-3.15h1.14l1.78,2.45l1.77-2.45
			C84.34,30.14,85.47,30.14,85.47,30.14z"/>
	</g>
	<g>
		<path class="st3" d="M66.74,40.5c2.4,0,3.61,1.03,3.61,2.82c0,1.82-1.21,2.83-3.61,2.83H65.1v3.79h-1.37v-9.43L66.74,40.5
			L66.74,40.5z M66.74,44.96c1.44,0,2.18-0.54,2.18-1.64c0-1.05-0.74-1.62-2.19-1.62h-1.62v3.26H66.74z"/>
		<path class="st3" d="M77.25,45.83v4.11h-1.21v-2.05h-0.03c-0.32,1.47-1.36,2.19-2.58,2.19c-1.29,0-2.21-0.64-2.21-1.93
			c0-1.51,1.36-1.97,2.76-2.16l1.98-0.28c-0.03-1.15-0.65-1.65-1.64-1.65c-0.83,0-1.53,0.46-1.68,1.4l-1.19-0.42
			c0.24-1.28,1.32-2.11,2.93-2.11C76.12,42.93,77.25,43.9,77.25,45.83z M75.99,46.65l-1.79,0.26c-0.9,0.14-1.65,0.33-1.65,1.12
			c0,0.67,0.49,0.94,1.17,0.94C75.11,48.98,75.99,47.69,75.99,46.65z"/>
		<path class="st3" d="M79.22,49.94v-6.85h1.19v1.98h0.04c0.37-1.68,1.01-2.12,2.01-2.12c0.22,0,0.51,0.03,0.71,0.07l0.07,1.28
			c-0.19-0.04-0.51-0.07-0.78-0.07c-1.26,0-1.97,0.75-1.97,2.08v3.64L79.22,49.94L79.22,49.94z"/>
		<path class="st3" d="M88.31,48.79l-0.17,1.12c-0.35,0.1-0.83,0.17-1.3,0.17c-1.11,0-1.82-0.4-1.82-1.68v-4.25h-1.15v-0.78
			c1.04-0.29,1.46-0.86,1.58-2.19h0.85v1.9h1.93v1.07H86.3v3.97c0,0.67,0.29,0.85,0.87,0.85C87.61,48.97,88.03,48.87,88.31,48.79z"
			/>
		<path class="st3" d="M89.79,49.94v-6.85H91v1.73h0.04c0.26-1.26,1.03-1.89,2.18-1.89c1.53,0,2.39,0.87,2.39,2.76v4.25h-1.28v-4.18
			c0-1.05-0.51-1.69-1.57-1.69c-1.14,0-1.69,0.64-1.69,1.69v4.18H89.79z"/>
		<path class="st3" d="M103.47,46.6h-4.94c0.03,1.48,0.64,2.41,1.97,2.41c0.9,0,1.58-0.43,1.76-1.37l1.18,0.29
			c-0.26,1.33-1.35,2.15-2.98,2.15c-2.12,0-3.26-1.39-3.26-3.47c0-2.15,1.21-3.68,3.32-3.68c1.86,0,2.97,1.19,2.97,3.33
			C103.49,46.5,103.47,46.53,103.47,46.6z M98.6,45.71h3.52c-0.04-1.07-0.62-1.73-1.68-1.73C99.43,43.97,98.8,44.58,98.6,45.71z"/>
		<path class="st3" d="M105.15,49.94v-6.85h1.19v1.98h0.04c0.37-1.68,1.01-2.12,2.01-2.12c0.22,0,0.51,0.03,0.71,0.07l0.07,1.28
			c-0.19-0.04-0.51-0.07-0.78-0.07c-1.26,0-1.97,0.75-1.97,2.08v3.64L105.15,49.94L105.15,49.94z"/>
	</g>
</g>
<g>
	<g>
		<path id="Shape_8_" class="st0" d="M-392.91,23.57h-21.66c-0.78,0.01-1.51,0.42-1.91,1.09c-0.4,0.67-0.43,1.5-0.06,2.19l2.17,4.11
			h-3.93c-0.5-0.01-0.97,0.25-1.23,0.67c-0.26,0.43-0.28,0.96-0.04,1.4l6.97,13.11c0.25,0.47,0.74,0.77,1.28,0.77
			c0.54,0,1.03-0.29,1.28-0.77l1.89-3.55l2.38,4.47c0.39,0.73,1.14,1.18,1.97,1.18c0.83,0,1.58-0.45,1.97-1.18l10.86-20.34
			c0.36-0.67,0.34-1.48-0.06-2.13C-391.44,23.96-392.15,23.57-392.91,23.57L-392.91,23.57z M-402.59,32.16l-4.75,8.87
			c-0.16,0.31-0.48,0.5-0.83,0.5c-0.35,0-0.67-0.19-0.83-0.5l-4.69-8.79c-0.14-0.27-0.14-0.6,0.02-0.86
			c0.16-0.26,0.44-0.42,0.75-0.42h9.6c0.29,0,0.56,0.14,0.71,0.39C-402.46,31.6-402.45,31.91-402.59,32.16z"/>
		<path id="Shape_7_" class="st0" d="M-392.91,23.57h-21.66c-0.78,0.01-1.51,0.42-1.91,1.09c-0.4,0.67-0.43,1.5-0.06,2.19l2.17,4.11
			h-3.93c-0.5-0.01-0.97,0.25-1.23,0.67c-0.26,0.43-0.28,0.96-0.04,1.4l6.97,13.11c0.25,0.47,0.74,0.77,1.28,0.77
			c0.54,0,1.03-0.29,1.28-0.77l1.89-3.55l2.38,4.47c0.39,0.73,1.14,1.18,1.97,1.18c0.83,0,1.58-0.45,1.97-1.18l10.86-20.34
			c0.36-0.67,0.34-1.48-0.06-2.13C-391.44,23.96-392.15,23.57-392.91,23.57L-392.91,23.57z M-402.59,32.16l-4.75,8.87
			c-0.16,0.31-0.48,0.5-0.83,0.5c-0.35,0-0.67-0.19-0.83-0.5l-4.69-8.79c-0.14-0.27-0.14-0.6,0.02-0.86
			c0.16-0.26,0.44-0.42,0.75-0.42h9.6c0.29,0,0.56,0.14,0.71,0.39C-402.46,31.6-402.45,31.91-402.59,32.16z"/>
	</g>
	<g>
		<path class="st0" d="M-341.08,43.96c-1.01,0-1.65,0.61-1.85,1.73h3.52C-339.44,44.62-340.02,43.96-341.08,43.96z"/>
		<path class="st0" d="M-368.98,48.02c0,0.67,0.49,0.94,1.17,0.94c1.4,0,2.28-1.29,2.28-2.33l-1.79,0.26
			C-368.23,47.04-368.98,47.23-368.98,48.02z"/>
		<path class="st0" d="M-327.54,15.74h-95.96c-1.12,0-2.02,0.9-2.02,2.02v36.36c0,1.12,0.9,2.02,2.02,2.02h95.96
			c1.12,0,2.02-0.9,2.02-2.02V17.76C-325.52,16.65-326.42,15.74-327.54,15.74z M-360.72,30.13l1.78,2.45l1.77-2.45h1.13l-2.36,3.18
			l2.33,3.11h-1.13l-1.77-2.42l-1.73,2.41h-1.14l2.33-3.14l-2.36-3.15L-360.72,30.13L-360.72,30.13z M-385.92,55.24h-36.71
			c-1.07,0-1.93-0.87-1.93-1.93V18.52c0-1.07,0.87-1.93,1.93-1.93h36.71V55.24z M-377.49,30.13l1.74,5.54l1.73-5.54h1l-2.13,6.29
			h-1.24l-2.12-6.29C-378.51,30.13-377.49,30.13-377.49,30.13z M-374.78,46.14h-1.64v3.79h-1.37V40.5h3.01
			c2.4,0,3.61,1.03,3.61,2.82C-371.17,45.12-372.38,46.14-374.78,46.14z M-372.39,30.9v-0.77h4.86v0.77h-1.96v5.52h-0.92V30.9
			H-372.39z M-364.27,49.92h-1.21v-2.05h-0.03c-0.32,1.47-1.36,2.19-2.58,2.19c-1.29,0-2.21-0.64-2.21-1.93
			c0-1.51,1.36-1.97,2.76-2.16l1.98-0.28c-0.03-1.15-0.65-1.65-1.64-1.65c-0.83,0-1.53,0.46-1.68,1.4l-1.19-0.42
			c0.24-1.28,1.32-2.11,2.93-2.11c1.73,0,2.86,0.97,2.86,2.9v4.11H-364.27z M-362.43,36.42h-4.14v-6.29h4.14v0.8h-3.22v1.81h2.76
			v0.8h-2.76v2.07h3.23v0.81H-362.43z M-359.06,44.21c-1.26,0-1.97,0.75-1.97,2.08v3.64h-1.28v-6.85h1.19v1.98h0.04
			c0.37-1.68,1.01-2.12,2.01-2.12c0.22,0,0.51,0.03,0.71,0.07l0.07,1.28C-358.47,44.24-358.79,44.21-359.06,44.21z M-353.38,49.9
			c-0.35,0.1-0.83,0.17-1.3,0.17c-1.11,0-1.82-0.4-1.82-1.68v-4.25h-1.15v-0.78c1.04-0.29,1.46-0.86,1.58-2.19h0.85v1.9h1.93v1.07
			h-1.93v3.97c0,0.67,0.29,0.85,0.87,0.85c0.44,0,0.86-0.1,1.14-0.18L-353.38,49.9z M-345.92,49.92h-1.28v-4.18
			c0-1.05-0.51-1.69-1.57-1.69c-1.14,0-1.69,0.64-1.69,1.69v4.18h-1.28v-6.85h1.22v1.73h0.04c0.26-1.26,1.03-1.89,2.18-1.89
			c1.53,0,2.39,0.87,2.39,2.76L-345.92,49.92L-345.92,49.92z M-338.05,46.58h-4.94c0.03,1.48,0.64,2.41,1.97,2.41
			c0.9,0,1.58-0.43,1.76-1.37l1.18,0.29c-0.26,1.33-1.35,2.15-2.98,2.15c-2.12,0-3.26-1.39-3.26-3.47c0-2.15,1.21-3.68,3.32-3.68
			c1.86,0,2.97,1.19,2.97,3.33C-338.04,46.48-338.05,46.51-338.05,46.58z M-333.13,44.21c-1.26,0-1.97,0.75-1.97,2.08v3.64h-1.28
			v-6.85h1.19v1.98h0.04c0.37-1.68,1.01-2.12,2.01-2.12c0.22,0,0.51,0.03,0.71,0.07l0.07,1.28
			C-332.54,44.24-332.86,44.21-333.13,44.21z"/>
		<path class="st0" d="M-374.79,41.68h-1.63v3.26h1.64c1.44,0,2.18-0.54,2.18-1.64C-372.6,42.25-373.34,41.68-374.79,41.68z"/>
	</g>
</g>
<g>
	<g>
		<path id="Shape_6_" class="st3" d="M-95.61,23.57h-21.66c-0.78,0.01-1.51,0.42-1.91,1.09s-0.43,1.5-0.06,2.19l2.17,4.11H-121
			c-0.5-0.01-0.97,0.25-1.23,0.67c-0.26,0.43-0.28,0.96-0.04,1.4l6.97,13.11c0.25,0.47,0.74,0.77,1.28,0.77s1.03-0.29,1.28-0.77
			l1.89-3.55l2.38,4.47c0.39,0.73,1.14,1.18,1.97,1.18s1.58-0.45,1.97-1.18l10.86-20.34c0.36-0.67,0.34-1.48-0.06-2.13
			C-94.14,23.96-94.85,23.57-95.61,23.57L-95.61,23.57z M-105.29,32.16l-4.75,8.87c-0.16,0.31-0.48,0.5-0.83,0.5
			s-0.67-0.19-0.83-0.5l-4.69-8.79c-0.14-0.27-0.14-0.6,0.02-0.86c0.16-0.26,0.44-0.42,0.75-0.42h9.6c0.29,0,0.56,0.14,0.71,0.39
			C-105.16,31.6-105.15,31.91-105.29,32.16z"/>
		<path id="Shape_5_" class="st3" d="M-95.61,23.57h-21.66c-0.78,0.01-1.51,0.42-1.91,1.09s-0.43,1.5-0.06,2.19l2.17,4.11H-121
			c-0.5-0.01-0.97,0.25-1.23,0.67c-0.26,0.43-0.28,0.96-0.04,1.4l6.97,13.11c0.25,0.47,0.74,0.77,1.28,0.77s1.03-0.29,1.28-0.77
			l1.89-3.55l2.38,4.47c0.39,0.73,1.14,1.18,1.97,1.18s1.58-0.45,1.97-1.18l10.86-20.34c0.36-0.67,0.34-1.48-0.06-2.13
			C-94.14,23.96-94.85,23.57-95.61,23.57L-95.61,23.57z M-105.29,32.16l-4.75,8.87c-0.16,0.31-0.48,0.5-0.83,0.5
			s-0.67-0.19-0.83-0.5l-4.69-8.79c-0.14-0.27-0.14-0.6,0.02-0.86c0.16-0.26,0.44-0.42,0.75-0.42h9.6c0.29,0,0.56,0.14,0.71,0.39
			C-105.16,31.6-105.15,31.91-105.29,32.16z"/>
	</g>
	<g>
		<path class="st3" d="M-43.78,43.96c-1.01,0-1.65,0.61-1.85,1.73h3.52C-42.14,44.62-42.72,43.96-43.78,43.96z"/>
		<path class="st3" d="M-71.68,48.02c0,0.67,0.49,0.94,1.17,0.94c1.4,0,2.28-1.29,2.28-2.33l-1.79,0.26
			C-70.93,47.04-71.68,47.23-71.68,48.02z"/>
		<path class="st3" d="M-30.24,15.74h-95.96c-1.12,0-2.02,0.9-2.02,2.02v36.36c0,1.12,0.9,2.02,2.02,2.02h95.96
			c1.12,0,2.02-0.9,2.02-2.02V17.76C-28.22,16.65-29.13,15.74-30.24,15.74z M-63.42,30.13l1.78,2.45l1.77-2.45h1.13l-2.36,3.18
			l2.33,3.11h-1.13L-61.67,34l-1.73,2.41h-1.14l2.33-3.14l-2.36-3.15L-63.42,30.13L-63.42,30.13z M-88.62,55.24h-36.71
			c-1.07,0-1.93-0.87-1.93-1.93V18.52c0-1.07,0.87-1.93,1.93-1.93h36.71V55.24z M-80.19,30.13l1.74,5.54l1.73-5.54h1l-2.13,6.29
			h-1.24l-2.12-6.29C-81.21,30.13-80.19,30.13-80.19,30.13z M-77.48,46.14h-1.64v3.79h-1.37V40.5h3.01c2.4,0,3.61,1.03,3.61,2.82
			C-73.87,45.12-75.08,46.14-77.48,46.14z M-75.09,30.9v-0.77h4.86v0.77h-1.96v5.52h-0.92V30.9H-75.09z M-66.98,49.92h-1.21v-2.05
			h-0.03c-0.32,1.47-1.36,2.19-2.58,2.19c-1.29,0-2.21-0.64-2.21-1.93c0-1.51,1.36-1.97,2.76-2.16l1.98-0.28
			c-0.03-1.15-0.65-1.65-1.64-1.65c-0.83,0-1.53,0.46-1.68,1.4l-1.19-0.42c0.24-1.28,1.32-2.11,2.93-2.11c1.73,0,2.86,0.97,2.86,2.9
			L-66.98,49.92L-66.98,49.92z M-65.14,36.42h-4.14v-6.29h4.14v0.8h-3.22v1.81h2.76v0.8h-2.76v2.07h3.23v0.81H-65.14z M-61.76,44.21
			c-1.26,0-1.97,0.75-1.97,2.08v3.64h-1.28v-6.85h1.19v1.98h0.04c0.37-1.68,1.01-2.12,2.01-2.12c0.22,0,0.51,0.03,0.71,0.07
			l0.07,1.28C-61.18,44.24-61.5,44.21-61.76,44.21z M-56.08,49.9c-0.35,0.1-0.83,0.17-1.3,0.17c-1.11,0-1.82-0.4-1.82-1.68v-4.25
			h-1.15v-0.78c1.04-0.29,1.46-0.86,1.58-2.19h0.85v1.9H-56v1.07h-1.93v3.97c0,0.67,0.29,0.85,0.87,0.85c0.44,0,0.86-0.1,1.14-0.18
			L-56.08,49.9z M-48.62,49.92h-1.28v-4.18c0-1.05-0.51-1.69-1.57-1.69c-1.14,0-1.69,0.64-1.69,1.69v4.18h-1.28v-6.85h1.21v1.73
			h0.04c0.26-1.26,1.03-1.89,2.18-1.89c1.53,0,2.39,0.87,2.39,2.76C-48.62,45.67-48.62,49.92-48.62,49.92z M-40.75,46.58h-4.94
			c0.03,1.48,0.64,2.41,1.97,2.41c0.9,0,1.58-0.43,1.76-1.37l1.18,0.29c-0.26,1.33-1.35,2.15-2.98,2.15c-2.12,0-3.26-1.39-3.26-3.47
			c0-2.15,1.21-3.68,3.32-3.68c1.86,0,2.97,1.19,2.97,3.33C-40.74,46.48-40.75,46.51-40.75,46.58z M-35.83,44.21
			c-1.26,0-1.97,0.75-1.97,2.08v3.64h-1.28v-6.85h1.19v1.98h0.04c0.37-1.68,1.01-2.12,2.01-2.12c0.22,0,0.51,0.03,0.71,0.07
			l0.07,1.28C-35.24,44.24-35.56,44.21-35.83,44.21z"/>
		<path class="st3" d="M-77.49,41.68h-1.62v3.26h1.64c1.44,0,2.18-0.54,2.18-1.64C-75.3,42.25-76.04,41.68-77.49,41.68z"/>
	</g>
</g>
<g>
	<g>
		<path id="Shape_2_" d="M-244.26,23.57h-21.66c-0.78,0.01-1.51,0.42-1.91,1.09s-0.43,1.5-0.06,2.19l2.17,4.11h-3.93
			c-0.5-0.01-0.97,0.25-1.23,0.67c-0.26,0.42-0.28,0.96-0.04,1.4l6.97,13.11c0.25,0.47,0.74,0.77,1.28,0.77s1.03-0.29,1.28-0.77
			l1.89-3.55l2.38,4.47c0.39,0.73,1.14,1.18,1.97,1.18s1.58-0.45,1.97-1.18l10.86-20.34c0.36-0.67,0.34-1.48-0.06-2.13
			C-242.78,23.96-243.49,23.57-244.26,23.57L-244.26,23.57z M-253.94,32.16l-4.75,8.87c-0.16,0.31-0.48,0.5-0.83,0.5
			c-0.35,0-0.67-0.19-0.83-0.5l-4.69-8.79c-0.14-0.27-0.14-0.6,0.02-0.86s0.44-0.42,0.75-0.42h9.6c0.29,0,0.56,0.14,0.71,0.39
			C-253.81,31.6-253.8,31.91-253.94,32.16z"/>
		<path id="Shape_1_" d="M-244.26,23.57h-21.66c-0.78,0.01-1.51,0.42-1.91,1.09s-0.43,1.5-0.06,2.19l2.17,4.11h-3.93
			c-0.5-0.01-0.97,0.25-1.23,0.67c-0.26,0.42-0.28,0.96-0.04,1.4l6.97,13.11c0.25,0.47,0.74,0.77,1.28,0.77s1.03-0.29,1.28-0.77
			l1.89-3.55l2.38,4.47c0.39,0.73,1.14,1.18,1.97,1.18s1.58-0.45,1.97-1.18l10.86-20.34c0.36-0.67,0.34-1.48-0.06-2.13
			C-242.78,23.96-243.49,23.57-244.26,23.57L-244.26,23.57z M-253.94,32.16l-4.75,8.87c-0.16,0.31-0.48,0.5-0.83,0.5
			c-0.35,0-0.67-0.19-0.83-0.5l-4.69-8.79c-0.14-0.27-0.14-0.6,0.02-0.86s0.44-0.42,0.75-0.42h9.6c0.29,0,0.56,0.14,0.71,0.39
			C-253.81,31.6-253.8,31.91-253.94,32.16z"/>
	</g>
	<g>
		<path d="M-192.42,43.96c-1.01,0-1.65,0.61-1.85,1.73h3.52C-190.78,44.62-191.37,43.96-192.42,43.96z"/>
		<path d="M-220.32,48.02c0,0.67,0.49,0.94,1.17,0.94c1.4,0,2.28-1.29,2.28-2.33l-1.79,0.26
			C-219.57,47.04-220.32,47.23-220.32,48.02z"/>
		<path d="M-178.89,15.74h-95.96c-1.12,0-2.02,0.9-2.02,2.02v36.36c0,1.12,0.9,2.02,2.02,2.02h95.96c1.12,0,2.02-0.9,2.02-2.02
			V17.76C-176.87,16.65-177.77,15.74-178.89,15.74z M-212.07,30.13l1.78,2.45l1.77-2.45h1.13l-2.36,3.18l2.33,3.11h-1.13l-1.76-2.41
			l-1.73,2.41h-1.14l2.33-3.14l-2.36-3.15H-212.07z M-237.26,55.24h-36.71c-1.07,0-1.93-0.87-1.93-1.93V18.52
			c0-1.07,0.87-1.93,1.93-1.93h36.71L-237.26,55.24L-237.26,55.24z M-228.83,30.13l1.74,5.54l1.73-5.54h1l-2.13,6.29h-1.24
			l-2.12-6.29C-229.85,30.13-228.83,30.13-228.83,30.13z M-226.12,46.14h-1.64v3.79h-1.37V40.5h3.01c2.4,0,3.61,1.03,3.61,2.82
			C-222.52,45.12-223.72,46.14-226.12,46.14z M-223.73,30.9v-0.77h4.86v0.77h-1.96v5.52h-0.92V30.9H-223.73z M-215.62,49.92h-1.21
			v-2.05h-0.03c-0.32,1.47-1.36,2.19-2.58,2.19c-1.29,0-2.21-0.64-2.21-1.93c0-1.51,1.36-1.97,2.76-2.16l1.98-0.28
			c-0.03-1.15-0.65-1.65-1.64-1.65c-0.83,0-1.53,0.46-1.68,1.4l-1.19-0.42c0.24-1.28,1.32-2.11,2.93-2.11c1.73,0,2.86,0.97,2.86,2.9
			v4.11H-215.62z M-213.78,36.42h-4.14v-6.29h4.14v0.8H-217v1.81h2.76v0.8H-217v2.07h3.23L-213.78,36.42L-213.78,36.42z
			 M-210.4,44.21c-1.26,0-1.97,0.75-1.97,2.08v3.64h-1.28v-6.85h1.19v1.98h0.04c0.37-1.68,1.01-2.12,2.01-2.12
			c0.22,0,0.51,0.03,0.71,0.07l0.07,1.28C-209.82,44.24-210.14,44.21-210.4,44.21z M-204.73,49.9c-0.35,0.1-0.83,0.17-1.3,0.17
			c-1.11,0-1.82-0.4-1.82-1.68v-4.25H-209v-0.78c1.04-0.29,1.46-0.86,1.58-2.19h0.85v1.9h1.93v1.07h-1.93v3.97
			c0,0.67,0.29,0.85,0.87,0.85c0.44,0,0.86-0.1,1.14-0.18L-204.73,49.9z M-197.26,49.92h-1.28v-4.18c0-1.05-0.51-1.69-1.57-1.69
			c-1.14,0-1.69,0.64-1.69,1.69v4.18h-1.28v-6.85h1.21v1.73h0.04c0.26-1.26,1.03-1.89,2.18-1.89c1.53,0,2.39,0.87,2.39,2.76
			L-197.26,49.92L-197.26,49.92z M-189.4,46.58h-4.94c0.03,1.48,0.64,2.41,1.97,2.41c0.9,0,1.58-0.43,1.76-1.37l1.18,0.29
			c-0.26,1.33-1.35,2.15-2.98,2.15c-2.12,0-3.26-1.39-3.26-3.47c0-2.15,1.21-3.68,3.32-3.68c1.86,0,2.97,1.19,2.97,3.33
			C-189.38,46.48-189.4,46.51-189.4,46.58z M-184.47,44.21c-1.26,0-1.97,0.75-1.97,2.08v3.64h-1.28v-6.85h1.19v1.98h0.04
			c0.37-1.68,1.01-2.12,2.01-2.12c0.22,0,0.51,0.03,0.71,0.07l0.07,1.28C-183.89,44.24-184.21,44.21-184.47,44.21z"/>
		<path d="M-226.14,41.68h-1.62v3.26h1.64c1.44,0,2.18-0.54,2.18-1.64C-223.95,42.25-224.68,41.68-226.14,41.68z"/>
	</g>
</g>
</svg>
